<svg width="251" height="35" viewBox="0 0 251 35" fill="none" xmlns="http://www.w3.org/2000/svg">
<path d="M6.50497 34H0.0362216L17.3679 0.545454H24.8494L31.0895 34H24.6207L20.1286 7.40625H19.8672L6.50497 34ZM8.88991 20.8828H26.532L25.7152 25.7507H8.07315L8.88991 20.8828ZM54.2488 0.545454H60.2601L56.3397 24.1499C55.9912 26.2952 55.2507 28.1411 54.1181 29.6875C52.9964 31.223 51.5698 32.4046 49.8382 33.2322C48.1176 34.049 46.1683 34.4574 43.9902 34.4574C42.0191 34.4574 40.2985 34.1089 38.8283 33.4119C37.3581 32.7041 36.2746 31.6586 35.5776 30.2756C34.8806 28.8816 34.7009 27.161 35.0385 25.1136H40.9846C40.8539 26.0393 40.9192 26.8288 41.1806 27.4822C41.4528 28.1357 41.8884 28.6312 42.4874 28.9688C43.0972 29.3063 43.8487 29.4751 44.7417 29.4751C45.7327 29.4751 46.6093 29.2628 47.3716 28.8381C48.1448 28.4134 48.7873 27.7926 49.2992 26.9759C49.811 26.1591 50.1704 25.1626 50.3773 23.9865L54.2488 0.545454Z" fill="#7456FF"/>
<path d="M83.448 9.90554C83.4915 8.39181 83.0287 7.23201 82.0595 6.42614C81.1011 5.62026 79.7235 5.21733 77.9267 5.21733C76.6634 5.21733 75.5472 5.40791 74.5779 5.78906C73.6196 6.15933 72.8464 6.67661 72.2583 7.34091C71.6703 7.99432 71.3055 8.74029 71.1639 9.57884C71.0441 10.2649 71.104 10.8639 71.3436 11.3757C71.5832 11.8875 71.948 12.3232 72.438 12.6825C72.939 13.0419 73.5053 13.3414 74.1369 13.581C74.7794 13.8205 75.4328 14.022 76.0971 14.1854L79.1028 14.9695C80.3007 15.2635 81.4442 15.661 82.5332 16.1619C83.6222 16.652 84.5642 17.2836 85.3592 18.0568C86.1651 18.8191 86.7531 19.7393 87.1234 20.8175C87.4937 21.8956 87.5536 23.1589 87.3031 24.6072C86.9764 26.5675 86.1869 28.2936 84.9345 29.7855C83.693 31.2666 82.0595 32.4264 80.0339 33.2649C78.0192 34.0926 75.6724 34.5064 72.9934 34.5064C70.4016 34.5064 68.2127 34.1035 66.4267 33.2976C64.6407 32.4808 63.3339 31.2992 62.5062 29.7528C61.6895 28.2064 61.4281 26.3279 61.7221 24.1172H67.6845C67.5647 25.2824 67.7553 26.2517 68.2562 27.0249C68.7681 27.7981 69.5031 28.3752 70.4615 28.7564C71.4198 29.1375 72.5306 29.3281 73.7939 29.3281C75.1116 29.3281 76.304 29.1321 77.3713 28.7401C78.4385 28.3371 79.3097 27.7817 79.9849 27.0739C80.671 26.3551 81.0903 25.5166 81.2427 24.5582C81.3952 23.6979 81.2699 22.9792 80.867 22.402C80.4641 21.8248 79.8379 21.3456 78.9885 20.9645C78.1499 20.5724 77.148 20.224 75.9828 19.919L72.3564 18.9389C69.7318 18.2202 67.7389 17.142 66.3777 15.7045C65.0273 14.267 64.5481 12.3504 64.9402 9.95454C65.2669 7.97254 66.0891 6.24645 67.4068 4.77628C68.7245 3.29522 70.3743 2.14631 72.3564 1.32954C74.3384 0.501893 76.5055 0.0880669 78.8578 0.0880669C81.2318 0.0880669 83.2411 0.501893 84.8855 1.32954C86.5408 2.15719 87.7496 3.31155 88.5119 4.79261C89.2851 6.26278 89.541 7.96709 89.2797 9.90554H83.448ZM94.9112 34H88.4425L105.774 0.545454H113.256L119.496 34H113.027L108.535 7.40625H108.273L94.9112 34ZM97.2962 20.8828H114.938L114.121 25.7507H96.4794L97.2962 20.8828ZM156.948 0.545454L151.394 34H146.004L134.03 11.2124H133.769L129.963 34H123.902L129.456 0.545454H134.879L146.837 23.3494H147.147L150.921 0.545454H156.948ZM161.232 5.62571L162.082 0.545454H188.773L187.924 5.62571H177.584L172.879 34H166.868L171.572 5.62571H161.232ZM219.488 17.6648C218.9 21.215 217.74 24.2424 216.008 26.7472C214.288 29.241 212.186 31.1522 209.703 32.4808C207.231 33.7985 204.568 34.4574 201.715 34.4574C198.72 34.4574 196.15 33.7604 194.005 32.3665C191.859 30.9616 190.313 28.9524 189.366 26.3388C188.429 23.7251 188.266 20.5888 188.876 16.9297C189.464 13.3904 190.618 10.3629 192.339 7.8473C194.059 5.33168 196.166 3.40956 198.66 2.08097C201.154 0.752366 203.844 0.0880669 206.73 0.0880669C209.703 0.0880669 212.251 0.790482 214.375 2.19531C216.509 3.58925 218.045 5.59848 218.981 8.22301C219.929 10.8475 220.098 13.9948 219.488 17.6648ZM213.525 16.9297C213.928 14.4576 213.89 12.3722 213.411 10.6733C212.943 8.97443 212.11 7.69484 210.912 6.83452C209.714 5.9633 208.238 5.5277 206.485 5.5277C204.59 5.5277 202.837 6.00142 201.225 6.94886C199.624 7.88542 198.263 9.25757 197.141 11.0653C196.03 12.8731 195.268 15.0729 194.854 17.6648C194.419 20.1477 194.446 22.2332 194.936 23.9212C195.426 25.6091 196.275 26.8833 197.484 27.7436C198.693 28.593 200.169 29.0178 201.911 29.0178C203.795 29.0178 205.537 28.5495 207.138 27.6129C208.739 26.6764 210.095 25.3097 211.206 23.5128C212.327 21.7159 213.101 19.5215 213.525 16.9297ZM244.673 9.90554C244.716 8.39181 244.253 7.23201 243.284 6.42614C242.326 5.62026 240.948 5.21733 239.151 5.21733C237.888 5.21733 236.772 5.40791 235.803 5.78906C234.844 6.15933 234.071 6.67661 233.483 7.34091C232.895 7.99432 232.53 8.74029 232.388 9.57884C232.269 10.2649 232.329 10.8639 232.568 11.3757C232.808 11.8875 233.173 12.3232 233.663 12.6825C234.164 13.0419 234.73 13.3414 235.362 13.581C236.004 13.8205 236.657 14.022 237.322 14.1854L240.327 14.9695C241.525 15.2635 242.669 15.661 243.758 16.1619C244.847 16.652 245.789 17.2836 246.584 18.0568C247.39 18.8191 247.978 19.7393 248.348 20.8175C248.718 21.8956 248.778 23.1589 248.528 24.6072C248.201 26.5675 247.411 28.2936 246.159 29.7855C244.918 31.2666 243.284 32.4264 241.259 33.2649C239.244 34.0926 236.897 34.5064 234.218 34.5064C231.626 34.5064 229.437 34.1035 227.651 33.2976C225.865 32.4808 224.558 31.2992 223.731 29.7528C222.914 28.2064 222.653 26.3279 222.947 24.1172H228.909C228.789 25.2824 228.98 26.2517 229.481 27.0249C229.993 27.7981 230.728 28.3752 231.686 28.7564C232.644 29.1375 233.755 29.3281 235.018 29.3281C236.336 29.3281 237.529 29.1321 238.596 28.7401C239.663 28.3371 240.534 27.7817 241.21 27.0739C241.896 26.3551 242.315 25.5166 242.467 24.5582C242.62 23.6979 242.495 22.9792 242.092 22.402C241.689 21.8248 241.063 21.3456 240.213 20.9645C239.375 20.5724 238.373 20.224 237.207 19.919L233.581 18.9389C230.956 18.2202 228.964 17.142 227.602 15.7045C226.252 14.267 225.773 12.3504 226.165 9.95454C226.491 7.97254 227.314 6.24645 228.631 4.77628C229.949 3.29522 231.599 2.14631 233.581 1.32954C235.563 0.501893 237.73 0.0880669 240.082 0.0880669C242.456 0.0880669 244.466 0.501893 246.11 1.32954C247.765 2.15719 248.974 3.31155 249.737 4.79261C250.51 6.26278 250.766 7.96709 250.504 9.90554H244.673Z" fill="white"/>
</svg>
