<svg width="42" height="42" viewBox="0 0 42 42" fill="none" xmlns="http://www.w3.org/2000/svg">
<rect x="0.5" y="0.5" width="41" height="41" rx="20.5" stroke="white"/>
<path d="M14.3873 12.1845C14.8724 11.8742 15.4491 11.7393 16.0215 11.8025C16.5939 11.8656 17.1274 12.1229 17.5333 12.5315L17.6742 12.6866L18.9822 14.2423C19.3792 14.7145 19.6287 15.2929 19.6995 15.9058C19.7703 16.5186 19.6594 17.1387 19.3806 17.689L19.2648 17.8947L18.3348 19.4327C18.1681 19.7131 18.5759 20.4998 19.805 21.6941C20.9112 22.7687 21.6851 23.1976 21.9913 23.1461L22.0435 23.1314L22.1043 23.101L24.3738 21.6364C24.6787 21.4393 25.034 21.3341 25.3971 21.3336C25.7602 21.3331 26.1158 21.4372 26.4213 21.6334L26.5711 21.7415L28.8623 23.5541C29.3113 23.9094 29.626 24.407 29.7544 24.965C29.8829 25.523 29.8175 26.1081 29.569 26.624L29.4644 26.8186L28.984 27.628C28.5524 28.354 27.9215 28.9408 27.1661 29.3187C26.4107 29.6965 25.5627 29.8495 24.7229 29.7595C22.1092 29.479 19.3657 27.9231 16.4791 25.119C13.5864 22.3074 11.9496 19.606 11.5982 16.9947C11.492 16.2052 11.6017 15.4018 11.9155 14.6697C12.2293 13.9376 12.7355 13.3042 13.3804 12.8367L13.5924 12.6928L14.3873 12.1845V12.1845Z" fill="#F8F8F8"/>
</svg>
