<svg width="42" height="42" viewBox="0 0 42 42" fill="none" xmlns="http://www.w3.org/2000/svg">
<rect x="0.5" y="0.5" width="41" height="41" rx="20.5" stroke="white"/>
<path d="M13.65 12.5999H28.35C29.1854 12.5999 29.9866 12.9317 30.5774 13.5225C31.1681 14.1132 31.5 14.9144 31.5 15.7499V26.2499C31.5 27.0853 31.1681 27.8865 30.5774 28.4772C29.9866 29.068 29.1854 29.3999 28.35 29.3999H13.65C12.8146 29.3999 12.0134 29.068 11.4226 28.4772C10.8319 27.8865 10.5 27.0853 10.5 26.2499V15.7499C10.5 14.9144 10.8319 14.1132 11.4226 13.5225C12.0134 12.9317 12.8146 12.5999 13.65 12.5999V12.5999ZM13.65 14.6999L20.475 19.3934C20.6346 19.4855 20.8157 19.534 21 19.534C21.1843 19.534 21.3654 19.4855 21.525 19.3934L28.35 14.6999H13.65Z" fill="#F8F8F8"/>
</svg>
