<svg width="367" height="98" viewBox="0 0 367 98" fill="none" xmlns="http://www.w3.org/2000/svg">
<g clip-path="url(#clip0_301_2)">
<g filter="url(#filter0_i_301_2)">
<path d="M15.415 81H0L41.3014 5H59.1295L74 81H58.585L47.8799 20.5862H47.2568L15.415 81ZM21.0986 51.2011H63.1392L61.1927 62.2595H19.1521L21.0986 51.2011Z" fill="#09AFE6"/>
</g>
<g filter="url(#filter1_d_301_2)">
<path d="M132.907 43.1877C132.93 40.9007 132.193 39.1447 130.697 37.9227C129.216 36.6997 127.142 36.0787 124.475 36.0607C122.566 36.0467 120.861 36.3377 119.359 36.9337C117.872 37.5137 116.658 38.3236 115.715 39.3626C114.787 40.3856 114.215 41.5567 113.999 42.8727C113.798 43.9777 113.894 44.9327 114.285 45.7387C114.692 46.5447 115.273 47.2227 116.029 47.7737C116.8 48.3097 117.647 48.7627 118.57 49.1327C119.493 49.4877 120.386 49.7817 121.249 50.0147L125.608 51.2277C127.016 51.6007 128.446 52.1037 129.899 52.7347C131.351 53.3667 132.659 54.1937 133.823 55.2177C134.986 56.2407 135.853 57.5047 136.424 59.0087C136.995 60.5127 137.103 62.3086 136.748 64.3976C136.285 67.0306 135.209 69.3636 133.521 71.3976C131.832 73.4306 129.607 75.0287 126.846 76.1917C124.085 77.3537 120.886 77.9217 117.25 77.8967C113.765 77.8717 110.835 77.2977 108.46 76.1757C106.1 75.0527 104.37 73.4727 103.27 71.4337C102.171 69.3807 101.785 66.9537 102.112 64.1527L109.18 64.2027C109.008 65.8837 109.307 67.2877 110.076 68.4137C110.86 69.5257 111.963 70.3586 113.386 70.9146C114.808 71.4546 116.421 71.7317 118.224 71.7437C120.224 71.7577 122.051 71.4607 123.704 70.8507C125.358 70.2257 126.724 69.3567 127.803 68.2437C128.883 67.1147 129.546 65.7937 129.793 64.2797C130.04 62.9027 129.847 61.7727 129.214 60.8897C128.595 60.0067 127.658 59.2727 126.402 58.6877C125.162 58.1037 123.747 57.5857 122.157 57.1357L116.912 55.5987C113.355 54.5577 110.663 53.0467 108.836 51.0637C107.009 49.0817 106.359 46.4707 106.884 43.2317C107.347 40.5537 108.476 38.2207 110.27 36.2327C112.065 34.2457 114.297 32.7077 116.967 31.6207C119.637 30.5187 122.533 29.9786 125.654 30.0006C128.806 30.0226 131.486 30.6017 133.694 31.7387C135.902 32.8757 137.534 34.4327 138.588 36.4097C139.642 38.3867 140.006 40.6627 139.68 43.2357L132.907 43.1877ZM146.518 77.3297L139.064 77.2777L163.691 30.9047L171.804 30.9616L180.677 77.5707L173.222 77.5187L166.55 39.3797L166.186 39.3767L146.518 77.3297ZM150.85 59.1327L175.031 59.3037L174.012 65.2057L149.831 65.0347L150.85 59.1327ZM232.843 31.3917L224.965 77.8827L218.511 77.8377L200.644 43.5747L200.235 43.5717L194.421 77.6677L187.398 77.6176L195.275 31.1277L201.775 31.1727L219.664 65.4817L220.096 65.4847L225.888 31.3427L232.843 31.3917ZM239.772 37.4867L240.791 31.4477L276.813 31.7017L275.794 37.7407L261.271 37.6377L254.413 78.0907L247.414 78.0407L254.271 37.5887L239.772 37.4867ZM319.196 55.7287C318.362 60.6167 316.757 64.8026 314.382 68.2856C312.023 71.7686 309.135 74.4387 305.72 76.2927C302.32 78.1327 298.651 79.0387 294.712 79.0107C290.606 78.9817 287.101 77.9797 284.199 76.0047C281.311 74.0147 279.244 71.2046 277.998 67.5746C276.753 63.9296 276.555 59.5947 277.404 54.5707C278.238 49.6817 279.835 45.4967 282.195 42.0127C284.57 38.5147 287.465 35.8377 290.88 33.9827C294.31 32.1287 298.01 31.2147 301.979 31.2427C306.055 31.2717 309.529 32.2807 312.401 34.2707C315.289 36.2457 317.356 39.0637 318.601 42.7237C319.847 46.3697 320.045 50.7037 319.196 55.7287ZM312.358 54.8167C312.991 51.1087 312.925 47.9867 312.161 45.4517C311.411 42.9007 310.122 40.9676 308.293 39.6516C306.464 38.3356 304.254 37.6687 301.663 37.6497C298.906 37.6307 296.32 38.3097 293.907 39.6867C291.508 41.0637 289.456 43.0796 287.751 45.7336C286.045 48.3886 284.876 51.6377 284.242 55.4817C283.594 59.1897 283.652 62.3117 284.416 64.8467C285.181 67.3827 286.478 69.3087 288.307 70.6247C290.151 71.9257 292.369 72.5847 294.959 72.6037C297.702 72.6227 300.272 71.9517 302.67 70.5897C305.084 69.2127 307.144 67.2047 308.849 64.5647C310.555 61.9097 311.724 58.6607 312.358 54.8167ZM355.214 44.7547C355.237 42.4667 354.5 40.7117 353.004 39.4897C351.523 38.2667 349.449 37.6457 346.782 37.6267C344.873 37.6137 343.168 37.9046 341.666 38.5006C340.179 39.0806 338.965 39.8907 338.022 40.9287C337.094 41.9527 336.522 43.1227 336.306 44.4397C336.105 45.5447 336.201 46.4997 336.592 47.3057C336.999 48.1117 337.58 48.7897 338.336 49.3407C339.107 49.8767 339.954 50.3297 340.877 50.6997C341.8 51.0547 342.693 51.3487 343.556 51.5817L347.915 52.7947C349.323 53.1677 350.753 53.6707 352.206 54.3017C353.658 54.9337 354.966 55.7607 356.13 56.7847C357.293 57.8077 358.16 59.0717 358.731 60.5757C359.302 62.0797 359.41 63.8757 359.055 65.9637C358.592 68.5977 357.516 70.9307 355.827 72.9647C354.139 74.9977 351.914 76.5957 349.153 77.7587C346.392 78.9207 343.193 79.4887 339.557 79.4637C336.072 79.4387 333.142 78.8646 330.767 77.7426C328.407 76.6196 326.677 75.0386 325.577 73.0006C324.478 70.9476 324.092 68.5207 324.419 65.7197L331.487 65.7697C331.315 67.4507 331.614 68.8537 332.383 69.9807C333.167 71.0927 334.27 71.9257 335.693 72.4817C337.115 73.0217 338.728 73.2987 340.531 73.3107C342.531 73.3247 344.358 73.0277 346.011 72.4177C347.665 71.7927 349.031 70.9237 350.11 69.8107C351.19 68.6817 351.853 67.3607 352.1 65.8467C352.347 64.4697 352.154 63.3397 351.521 62.4567C350.902 61.5737 349.965 60.8397 348.709 60.2547C347.469 59.6707 346.054 59.1527 344.464 58.7017L339.219 57.1646C335.662 56.1246 332.97 54.6137 331.143 52.6307C329.316 50.6487 328.666 48.0376 329.191 44.7986C329.654 42.1196 330.783 39.7867 332.577 37.7997C334.372 35.8127 336.604 34.2747 339.274 33.1877C341.944 32.0857 344.84 31.5447 347.961 31.5667C351.113 31.5897 353.792 32.1687 356.001 33.3057C358.209 34.4427 359.841 35.9997 360.895 37.9767C361.949 39.9537 362.313 42.2286 361.987 44.8026L355.214 44.7547Z" fill="white"/>
</g>
<g filter="url(#filter2_i_301_2)">
<path d="M83.6452 6.85482L95.8741 0L101.766 57.2989C102.317 62.4981 101.895 67.4733 100.499 72.2254C99.12 76.9411 96.9122 81.2124 93.8757 85.0394C90.8554 88.8292 87.1297 91.9655 82.6991 94.449C78.6896 96.6966 74.9843 97.8785 71.5848 97.9947C68.1782 98.087 65.3596 96.9828 63.1291 94.682C60.8923 92.3567 59.5159 88.711 59 83.7441L71.0958 76.9642C71.3739 79.1845 71.9705 80.8772 72.8862 82.0416C73.8238 83.1934 75.0013 83.8057 76.418 83.8785C77.8567 83.9386 79.4843 83.46 81.3008 82.4418C83.3169 81.3117 84.9756 79.8367 86.2769 78.0173C87.6002 76.1846 88.5421 74.063 89.104 71.6516C89.6652 69.2395 89.8109 66.6001 89.5406 63.7317L83.6452 6.85482Z" fill="#09AFE6"/>
</g>
</g>
<defs>
<filter id="filter0_i_301_2" x="0" y="5" width="74" height="80" filterUnits="userSpaceOnUse" color-interpolation-filters="sRGB">
<feFlood flood-opacity="0" result="BackgroundImageFix"/>
<feBlend mode="normal" in="SourceGraphic" in2="BackgroundImageFix" result="shape"/>
<feColorMatrix in="SourceAlpha" type="matrix" values="0 0 0 0 0 0 0 0 0 0 0 0 0 0 0 0 0 0 127 0" result="hardAlpha"/>
<feOffset dy="4"/>
<feGaussianBlur stdDeviation="2"/>
<feComposite in2="hardAlpha" operator="arithmetic" k2="-1" k3="1"/>
<feColorMatrix type="matrix" values="0 0 0 0 0 0 0 0 0 0 0 0 0 0 0 0 0 0 0.25 0"/>
<feBlend mode="normal" in2="shape" result="effect1_innerShadow_301_2"/>
</filter>
<filter id="filter1_d_301_2" x="98" y="30" width="268.103" height="57.4644" filterUnits="userSpaceOnUse" color-interpolation-filters="sRGB">
<feFlood flood-opacity="0" result="BackgroundImageFix"/>
<feColorMatrix in="SourceAlpha" type="matrix" values="0 0 0 0 0 0 0 0 0 0 0 0 0 0 0 0 0 0 127 0" result="hardAlpha"/>
<feOffset dy="4"/>
<feGaussianBlur stdDeviation="2"/>
<feComposite in2="hardAlpha" operator="out"/>
<feColorMatrix type="matrix" values="0 0 0 0 0 0 0 0 0 0 0 0 0 0 0 0 0 0 0.25 0"/>
<feBlend mode="normal" in2="BackgroundImageFix" result="effect1_dropShadow_301_2"/>
<feBlend mode="normal" in="SourceGraphic" in2="effect1_dropShadow_301_2" result="shape"/>
</filter>
<filter id="filter2_i_301_2" x="59" y="0" width="43" height="102" filterUnits="userSpaceOnUse" color-interpolation-filters="sRGB">
<feFlood flood-opacity="0" result="BackgroundImageFix"/>
<feBlend mode="normal" in="SourceGraphic" in2="BackgroundImageFix" result="shape"/>
<feColorMatrix in="SourceAlpha" type="matrix" values="0 0 0 0 0 0 0 0 0 0 0 0 0 0 0 0 0 0 127 0" result="hardAlpha"/>
<feOffset dy="4"/>
<feGaussianBlur stdDeviation="2"/>
<feComposite in2="hardAlpha" operator="arithmetic" k2="-1" k3="1"/>
<feColorMatrix type="matrix" values="0 0 0 0 0 0 0 0 0 0 0 0 0 0 0 0 0 0 0.25 0"/>
<feBlend mode="normal" in2="shape" result="effect1_innerShadow_301_2"/>
</filter>
<clipPath id="clip0_301_2">
<rect width="367" height="98" fill="white"/>
</clipPath>
</defs>
</svg>
