<svg width="500" height="500" viewBox="0 0 500 500" fill="none" xmlns="http://www.w3.org/2000/svg">
<path d="M186.686 278.343H165.311L222.581 167.797H247.302L267.922 278.343H246.547L231.703 190.468H230.839L186.686 278.343ZM194.567 234.999H252.862L250.163 251.084H191.868L194.567 234.999Z" fill="#7456FF"/>
<path d="M146.3 280.948C146.323 278.661 145.586 276.905 144.09 275.683C142.609 274.46 140.535 273.839 137.868 273.821C135.959 273.807 134.254 274.098 132.752 274.694C131.265 275.274 130.051 276.084 129.108 277.123C128.18 278.146 127.608 279.317 127.392 280.633C127.191 281.738 127.287 282.693 127.678 283.499C128.085 284.305 128.666 284.983 129.422 285.534C130.193 286.07 131.04 286.523 131.963 286.893C132.886 287.248 133.779 287.542 134.642 287.775L139.001 288.988C140.409 289.361 141.839 289.864 143.292 290.495C144.744 291.127 146.052 291.954 147.216 292.978C148.379 294.001 149.246 295.265 149.817 296.769C150.388 298.273 150.496 300.069 150.141 302.158C149.678 304.791 148.602 307.124 146.914 309.158C145.225 311.191 143 312.789 140.239 313.952C137.478 315.114 134.279 315.682 130.643 315.657C127.158 315.632 124.228 315.058 121.853 313.936C119.493 312.813 117.763 311.233 116.663 309.194C115.564 307.141 115.178 304.714 115.505 301.913L122.573 301.963C122.401 303.644 122.7 305.048 123.469 306.174C124.253 307.286 125.356 308.119 126.779 308.675C128.201 309.215 129.814 309.492 131.617 309.504C133.617 309.518 135.444 309.221 137.097 308.611C138.751 307.986 140.117 307.117 141.196 306.004C142.276 304.875 142.939 303.554 143.186 302.04C143.433 300.663 143.24 299.533 142.607 298.65C141.988 297.767 141.051 297.033 139.795 296.448C138.555 295.864 137.14 295.346 135.55 294.896L130.305 293.359C126.748 292.318 124.056 290.807 122.229 288.824C120.402 286.842 119.752 284.231 120.277 280.992C120.74 278.314 121.869 275.981 123.663 273.993C125.458 272.006 127.69 270.468 130.36 269.381C133.03 268.279 135.926 267.739 139.047 267.761C142.199 267.783 144.879 268.362 147.087 269.499C149.295 270.636 150.927 272.193 151.981 274.17C153.035 276.147 153.399 278.423 153.073 280.996L146.3 280.948ZM159.911 315.09L152.457 315.038L177.084 268.665L185.197 268.722L194.07 315.331L186.615 315.279L179.943 277.14L179.579 277.137L159.911 315.09ZM164.243 296.893L188.424 297.064L187.405 302.966L163.224 302.795L164.243 296.893ZM246.236 269.152L238.358 315.643L231.904 315.598L214.037 281.335L213.628 281.332L207.814 315.428L200.791 315.378L208.668 268.888L215.168 268.933L233.057 303.242L233.489 303.245L239.281 269.103L246.236 269.152ZM253.165 275.247L254.184 269.208L290.206 269.462L289.187 275.501L274.664 275.398L267.806 315.851L260.807 315.801L267.664 275.349L253.165 275.247ZM332.589 293.489C331.755 298.377 330.15 302.563 327.775 306.046C325.416 309.529 322.528 312.199 319.113 314.053C315.713 315.893 312.044 316.799 308.105 316.771C303.999 316.742 300.494 315.74 297.592 313.765C294.704 311.775 292.637 308.965 291.391 305.335C290.146 301.69 289.948 297.355 290.797 292.331C291.631 287.442 293.228 283.257 295.588 279.773C297.963 276.275 300.858 273.598 304.273 271.743C307.703 269.889 311.403 268.975 315.372 269.003C319.448 269.032 322.922 270.041 325.794 272.031C328.682 274.006 330.749 276.824 331.994 280.484C333.24 284.13 333.438 288.464 332.589 293.489ZM325.751 292.577C326.384 288.869 326.318 285.747 325.554 283.212C324.804 280.661 323.515 278.728 321.686 277.412C319.857 276.096 317.647 275.429 315.056 275.41C312.299 275.391 309.713 276.07 307.3 277.447C304.901 278.824 302.849 280.84 301.144 283.494C299.438 286.149 298.269 289.398 297.635 293.242C296.987 296.95 297.045 300.072 297.809 302.607C298.574 305.143 299.871 307.069 301.7 308.385C303.544 309.686 305.762 310.345 308.352 310.364C311.095 310.383 313.665 309.712 316.063 308.35C318.477 306.973 320.537 304.965 322.242 302.325C323.948 299.67 325.117 296.421 325.751 292.577ZM368.607 282.515C368.63 280.227 367.893 278.472 366.397 277.25C364.916 276.027 362.842 275.406 360.175 275.387C358.266 275.374 356.561 275.665 355.059 276.261C353.572 276.841 352.358 277.651 351.415 278.689C350.487 279.713 349.915 280.883 349.699 282.2C349.498 283.305 349.594 284.26 349.985 285.066C350.392 285.872 350.973 286.55 351.729 287.101C352.5 287.637 353.347 288.09 354.27 288.46C355.193 288.815 356.086 289.109 356.949 289.342L361.308 290.555C362.716 290.928 364.146 291.431 365.599 292.062C367.051 292.694 368.359 293.521 369.523 294.545C370.686 295.568 371.553 296.832 372.124 298.336C372.695 299.84 372.803 301.636 372.448 303.724C371.985 306.358 370.909 308.691 369.22 310.725C367.532 312.758 365.307 314.356 362.546 315.519C359.785 316.681 356.586 317.249 352.95 317.224C349.465 317.199 346.535 316.625 344.16 315.503C341.8 314.38 340.07 312.799 338.97 310.761C337.871 308.708 337.485 306.281 337.812 303.48L344.88 303.53C344.708 305.211 345.007 306.614 345.776 307.741C346.56 308.853 347.663 309.686 349.086 310.242C350.508 310.782 352.121 311.059 353.924 311.071C355.924 311.085 357.751 310.788 359.404 310.178C361.058 309.553 362.424 308.684 363.503 307.571C364.583 306.442 365.246 305.121 365.493 303.607C365.74 302.23 365.547 301.1 364.914 300.217C364.295 299.334 363.358 298.6 362.102 298.015C360.862 297.431 359.447 296.913 357.857 296.462L352.612 294.925C349.055 293.885 346.363 292.374 344.536 290.391C342.709 288.409 342.059 285.798 342.584 282.559C343.047 279.88 344.176 277.547 345.97 275.56C347.765 273.573 349.997 272.035 352.667 270.948C355.337 269.846 358.233 269.305 361.354 269.327C364.506 269.35 367.185 269.929 369.394 271.066C371.602 272.203 373.234 273.76 374.288 275.737C375.342 277.714 375.706 279.989 375.38 282.563L368.607 282.515Z" fill="white"/>
<path d="M266.275 184.735L283.556 174.939L291.882 256.823C292.661 264.253 292.064 271.363 290.092 278.154C288.143 284.893 285.023 290.997 280.732 296.466C276.464 301.882 271.199 306.364 264.938 309.913C259.272 313.125 254.036 314.814 249.232 314.98C244.418 315.112 240.435 313.534 237.283 310.246C234.122 306.923 232.177 301.713 231.448 294.615L248.541 284.926C248.934 288.099 249.777 290.518 251.071 292.182C252.396 293.828 254.06 294.703 256.062 294.807C258.095 294.893 260.395 294.209 262.962 292.754C265.811 291.139 268.155 289.031 269.994 286.431C271.864 283.812 273.195 280.78 273.989 277.334C274.782 273.887 274.988 270.115 274.606 266.016L266.275 184.735Z" fill="#7456FF"/>
</svg>
