<svg width="227" height="217" viewBox="0 0 327 317" fill="none" xmlns="http://www.w3.org/2000/svg">
<path d="M264.69 10.5204C231.293 13.3518 181.168 53.5344 200.191 138.01C219.215 222.485 175.686 236.039 151.544 232.257" stroke="#09AFE6"/>
<path d="M116.515 230.451C116.515 236.895 121.146 242.015 126.739 242.015C132.332 242.015 136.963 236.895 136.963 230.451C136.963 224.007 132.332 218.886 126.739 218.886C121.146 218.886 116.515 224.007 116.515 230.451Z" stroke="#09AFE6"/>
<path d="M100.417 230.451C73.7687 227.709 20.6682 240.98 21.4481 316" stroke="#09AFE6"/>
<path d="M187.672 187.676C187.997 198.827 181.14 220.141 151.112 216.192" stroke="#FFF"/>
<path d="M25.1638 95.9337C24.2532 96.5251 24.2532 97.8581 25.1638 98.4496L51.0221 115.245C52.02 115.893 53.3391 115.177 53.3391 113.987L53.3391 80.3962C53.3391 79.2063 52.02 78.4901 51.0221 79.1382L25.1638 95.9337Z" stroke="#09AFE6" stroke-width="3"/>
<path d="M4.14581 50.6759C2.62816 51.6617 2.62816 53.8833 4.14581 54.8691L20.4987 65.4906C22.1618 66.5708 24.3604 65.3772 24.3604 63.394L24.3604 42.151C24.3604 40.1678 22.1618 38.9742 20.4987 40.0545L4.14581 50.6759Z" stroke="#09AFE6"/>
</svg>

